<svg class="svg-icon" style="width: 1em; height: 1em;vertical-align: middle;fill: currentColor;overflow: hidden;" viewBox="0 0 1024 1024" version="1.1" xmlns="http://www.w3.org/2000/svg"><path d="M819.203584 819.2H332.803584a25.6 25.6 0 0 1 0-51.2H819.203584c84.6848 0 153.6-68.9152 153.6-153.6a153.8048 153.8048 0 0 0-204.8-144.896 25.6 25.6 0 0 1-27.2896-41.5744A102.5024 102.5024 0 0 0 665.603584 255.9488a102.4512 102.4512 0 0 0-102.1952 96 25.6 25.6 0 0 1-46.4896 13.1072A256.6144 256.6144 0 0 0 307.203584 255.9488a256.3072 256.3072 0 0 0-254.976 279.296 25.6 25.6 0 0 1-50.9952 4.608A307.5584 307.5584 0 0 1 307.203584 204.7488a307.712 307.712 0 0 1 218.1632 90.9312A153.9584 153.9584 0 0 1 665.603584 204.7488a153.8048 153.8048 0 0 1 144.7936 205.0048A205.0048 205.0048 0 0 1 1024.003584 614.3488c0 112.9472-91.8528 204.8-204.8 204.8z" fill="" /><path d="M179.203584 793.6a25.7024 25.7024 0 0 1-18.1248-7.4752l-102.4-102.4a25.6 25.6 0 0 1 36.1984-36.1984l84.2752 84.2752 237.8752-237.8752a25.6 25.6 0 0 1 36.1984 36.1984l-256 256a25.4976 25.4976 0 0 1-18.1248 7.4752z" fill="" /></svg>