<svg class="svg-icon" style="width: 1em; height: 1em;vertical-align: middle;fill: currentColor;overflow: hidden;" viewBox="0 0 1024 1024" version="1.1" xmlns="http://www.w3.org/2000/svg"><path d="M519.0656 1024C512.7168 1022.464 508.7232 1020.8256 507.1872 1019.2896 497.664 1014.4768 492.8512 1007.3088 492.8512 997.7856L492.8512 576.6144 252.5184 786.0224C239.8208 797.0816 228.7616 795.5456 219.2384 781.2096 208.0768 770.1504 207.2576 758.272 216.7808 745.5744l259.3792-233.2672L214.4256 283.8528C200.192 268.0832 201.728 253.7472 219.2384 241.0496 228.7616 228.352 239.8208 227.6352 252.5184 238.6944l240.3328 209.408 0-425.984c0-9.5232 6.3488-15.7696 19.0464-19.0464 4.7104-4.7104 16.6912-3.8912 35.7376 2.3552l278.4256 257.024C832.4096 267.1616 835.584 272.7936 835.584 279.1424c0 7.9872-3.1744 14.2336-9.5232 19.0464L580.9152 509.952l245.1456 216.576C832.4096 731.2384 835.584 736.8704 835.584 743.2192c0 6.3488-3.1744 12.6976-9.5232 19.0464L547.6352 1016.832C531.7632 1020.1088 522.24 1022.464 519.0656 1024zM578.56 126.7712l0 292.7616 152.2688-140.3904L578.56 126.7712zM580.9152 602.7264l0 292.7616 154.7264-149.9136L580.9152 602.7264z"  /></svg>